<mxfile host="65bd71144e">
    <diagram id="SO4L1pYcyVnlR74khvxw" name="Page-1">
        <mxGraphModel dx="1060" dy="471" grid="0" gridSize="10" guides="1" tooltips="1" connect="1" arrows="1" fold="1" page="1" pageScale="1" pageWidth="2339" pageHeight="3300" background="#ffffff" math="0" shadow="0">
            <root>
                <mxCell id="0"/>
                <mxCell id="1" parent="0"/>
                <mxCell id="2" value="" style="rounded=0;whiteSpace=wrap;html=1;fillColor=#FFFFFF;strokeColor=#000000;sketch=1;" parent="1" vertex="1">
                    <mxGeometry x="210" y="120" width="140" height="360" as="geometry"/>
                </mxCell>
                <mxCell id="11" value="" style="group;sketch=1;rounded=0;" parent="1" vertex="1" connectable="0">
                    <mxGeometry x="210" y="180" width="110" height="140" as="geometry"/>
                </mxCell>
                <mxCell id="3" value="&lt;font color=&quot;#000000&quot;&gt;property1&lt;/font&gt;" style="rounded=0;whiteSpace=wrap;html=1;strokeColor=#000000;fillColor=#FFFFFF;align=left;sketch=1;" parent="11" vertex="1">
                    <mxGeometry width="110" height="20" as="geometry"/>
                </mxCell>
                <mxCell id="5" value="&lt;font color=&quot;#000000&quot;&gt;property2&lt;span style=&quot;white-space: pre&quot;&gt;&#9;&lt;/span&gt;&lt;span style=&quot;white-space: pre&quot;&gt;&#9;&lt;/span&gt;&lt;/font&gt;" style="rounded=0;whiteSpace=wrap;html=1;strokeColor=#000000;fillColor=#FFFFFF;align=left;sketch=1;" parent="11" vertex="1">
                    <mxGeometry y="20" width="110" height="20" as="geometry"/>
                </mxCell>
                <mxCell id="6" value="&lt;font color=&quot;#000000&quot;&gt;property3&lt;/font&gt;" style="rounded=0;whiteSpace=wrap;html=1;strokeColor=#000000;fillColor=#FFFFFF;align=left;sketch=1;" parent="11" vertex="1">
                    <mxGeometry y="40" width="110" height="20" as="geometry"/>
                </mxCell>
                <mxCell id="7" value="&lt;font color=&quot;#000000&quot;&gt;property7&lt;/font&gt;" style="rounded=0;whiteSpace=wrap;html=1;strokeColor=#000000;fillColor=#FFFFFF;align=left;sketch=1;" parent="11" vertex="1">
                    <mxGeometry y="120" width="110" height="20" as="geometry"/>
                </mxCell>
                <mxCell id="8" value="&lt;font color=&quot;#000000&quot;&gt;property5&lt;/font&gt;" style="rounded=0;whiteSpace=wrap;html=1;strokeColor=#000000;fillColor=#FFFFFF;align=left;sketch=1;" parent="11" vertex="1">
                    <mxGeometry y="80" width="110" height="20" as="geometry"/>
                </mxCell>
                <mxCell id="9" value="&lt;font color=&quot;#000000&quot;&gt;property6&lt;/font&gt;" style="rounded=0;whiteSpace=wrap;html=1;strokeColor=#000000;fillColor=#FFFFFF;align=left;sketch=1;" parent="11" vertex="1">
                    <mxGeometry y="100" width="110" height="20" as="geometry"/>
                </mxCell>
                <mxCell id="10" value="&lt;font color=&quot;#000000&quot;&gt;property4&lt;/font&gt;" style="rounded=0;whiteSpace=wrap;html=1;strokeColor=#000000;fillColor=#FFFFFF;align=left;sketch=1;" parent="11" vertex="1">
                    <mxGeometry y="60" width="110" height="20" as="geometry"/>
                </mxCell>
                <mxCell id="13" value="&lt;font color=&quot;#000000&quot;&gt;property1&lt;/font&gt;" style="rounded=0;whiteSpace=wrap;html=1;strokeColor=#000000;fillColor=#FFFFFF;align=left;sketch=1;" parent="1" vertex="1">
                    <mxGeometry x="210" y="370" width="110" height="20" as="geometry"/>
                </mxCell>
                <mxCell id="14" value="&lt;font color=&quot;#000000&quot;&gt;property2&lt;span style=&quot;white-space: pre&quot;&gt;&#9;&lt;/span&gt;&lt;span style=&quot;white-space: pre&quot;&gt;&#9;&lt;/span&gt;&lt;/font&gt;" style="rounded=0;whiteSpace=wrap;html=1;strokeColor=#000000;fillColor=#FFFFFF;align=left;sketch=1;" parent="1" vertex="1">
                    <mxGeometry x="210" y="390" width="110" height="20" as="geometry"/>
                </mxCell>
                <mxCell id="15" value="&lt;font color=&quot;#000000&quot;&gt;property3&lt;/font&gt;" style="rounded=0;whiteSpace=wrap;html=1;strokeColor=#000000;fillColor=#FFFFFF;align=left;sketch=1;" parent="1" vertex="1">
                    <mxGeometry x="210" y="410" width="110" height="20" as="geometry"/>
                </mxCell>
                <mxCell id="17" value="&lt;font color=&quot;#000000&quot;&gt;property5&lt;/font&gt;" style="rounded=0;whiteSpace=wrap;html=1;strokeColor=#000000;fillColor=#FFFFFF;align=left;sketch=1;" parent="1" vertex="1">
                    <mxGeometry x="210" y="450" width="110" height="20" as="geometry"/>
                </mxCell>
                <mxCell id="19" value="&lt;font color=&quot;#000000&quot;&gt;property4&lt;/font&gt;" style="rounded=0;whiteSpace=wrap;html=1;strokeColor=#000000;fillColor=#FFFFFF;align=left;sketch=1;" parent="1" vertex="1">
                    <mxGeometry x="210" y="430" width="110" height="20" as="geometry"/>
                </mxCell>
                <mxCell id="21" value="&lt;font color=&quot;#000000&quot;&gt;&lt;b&gt;Entity1&lt;/b&gt;&lt;/font&gt;" style="text;html=1;align=center;verticalAlign=middle;resizable=0;points=[];autosize=1;strokeColor=none;sketch=1;rounded=0;" parent="1" vertex="1">
                    <mxGeometry x="255" y="121" width="50" height="18" as="geometry"/>
                </mxCell>
                <mxCell id="22" value="&lt;font color=&quot;#000000&quot;&gt;properties&lt;/font&gt;" style="rounded=0;whiteSpace=wrap;html=1;strokeColor=#000000;fillColor=#FFFFFF;sketch=1;" parent="1" vertex="1">
                    <mxGeometry x="210" y="160" width="70" height="20" as="geometry"/>
                </mxCell>
                <mxCell id="23" value="&lt;font color=&quot;#000000&quot;&gt;caches&lt;/font&gt;" style="rounded=0;whiteSpace=wrap;html=1;strokeColor=#000000;fillColor=#FFFFFF;sketch=1;" parent="1" vertex="1">
                    <mxGeometry x="210" y="350" width="70" height="20" as="geometry"/>
                </mxCell>
                <mxCell id="24" value="" style="rounded=0;whiteSpace=wrap;html=1;fillColor=#FFFFFF;strokeColor=#000000;sketch=1;" parent="1" vertex="1">
                    <mxGeometry x="710" y="121" width="140" height="360" as="geometry"/>
                </mxCell>
                <mxCell id="25" value="" style="group;sketch=1;rounded=0;" parent="1" vertex="1" connectable="0">
                    <mxGeometry x="710" y="181" width="110" height="140" as="geometry"/>
                </mxCell>
                <mxCell id="26" value="&lt;font color=&quot;#000000&quot;&gt;property1&lt;/font&gt;" style="rounded=0;whiteSpace=wrap;html=1;strokeColor=#000000;fillColor=#FFFFFF;align=left;sketch=1;" parent="25" vertex="1">
                    <mxGeometry width="110" height="20" as="geometry"/>
                </mxCell>
                <mxCell id="27" value="&lt;font color=&quot;#000000&quot;&gt;property2&lt;span style=&quot;white-space: pre&quot;&gt;&#9;&lt;/span&gt;&lt;span style=&quot;white-space: pre&quot;&gt;&#9;&lt;/span&gt;&lt;/font&gt;" style="rounded=0;whiteSpace=wrap;html=1;strokeColor=#000000;fillColor=#FFFFFF;align=left;sketch=1;" parent="25" vertex="1">
                    <mxGeometry y="20" width="110" height="20" as="geometry"/>
                </mxCell>
                <mxCell id="28" value="&lt;font color=&quot;#000000&quot;&gt;property3&lt;/font&gt;" style="rounded=0;whiteSpace=wrap;html=1;strokeColor=#000000;fillColor=#FFFFFF;align=left;sketch=1;" parent="25" vertex="1">
                    <mxGeometry y="40" width="110" height="20" as="geometry"/>
                </mxCell>
                <mxCell id="29" value="&lt;font color=&quot;#000000&quot;&gt;property7&lt;/font&gt;" style="rounded=0;whiteSpace=wrap;html=1;strokeColor=#000000;fillColor=#FFFFFF;align=left;sketch=1;" parent="25" vertex="1">
                    <mxGeometry y="120" width="110" height="20" as="geometry"/>
                </mxCell>
                <mxCell id="30" value="&lt;font color=&quot;#000000&quot;&gt;property5&lt;/font&gt;" style="rounded=0;whiteSpace=wrap;html=1;strokeColor=#000000;fillColor=#FFFFFF;align=left;sketch=1;" parent="25" vertex="1">
                    <mxGeometry y="80" width="110" height="20" as="geometry"/>
                </mxCell>
                <mxCell id="31" value="&lt;font color=&quot;#000000&quot;&gt;property6&lt;/font&gt;" style="rounded=0;whiteSpace=wrap;html=1;strokeColor=#000000;fillColor=#FFFFFF;align=left;sketch=1;" parent="25" vertex="1">
                    <mxGeometry y="100" width="110" height="20" as="geometry"/>
                </mxCell>
                <mxCell id="32" value="&lt;font color=&quot;#000000&quot;&gt;property4&lt;/font&gt;" style="rounded=0;whiteSpace=wrap;html=1;strokeColor=#000000;fillColor=#FFFFFF;align=left;sketch=1;" parent="25" vertex="1">
                    <mxGeometry y="60" width="110" height="20" as="geometry"/>
                </mxCell>
                <mxCell id="115" style="edgeStyle=orthogonalEdgeStyle;html=1;exitX=1;exitY=0.5;exitDx=0;exitDy=0;entryX=1;entryY=0.5;entryDx=0;entryDy=0;strokeColor=#000000;sketch=1;curved=1;rounded=0;" parent="1" source="33" target="26" edge="1">
                    <mxGeometry relative="1" as="geometry">
                        <Array as="points">
                            <mxPoint x="908" y="381"/>
                            <mxPoint x="908" y="191"/>
                        </Array>
                    </mxGeometry>
                </mxCell>
                <mxCell id="33" value="&lt;font color=&quot;#000000&quot;&gt;property1&lt;/font&gt;" style="rounded=0;whiteSpace=wrap;html=1;strokeColor=#000000;fillColor=#FFFFFF;align=left;sketch=1;" parent="1" vertex="1">
                    <mxGeometry x="710" y="371" width="110" height="20" as="geometry"/>
                </mxCell>
                <mxCell id="34" value="&lt;font color=&quot;#000000&quot;&gt;property2&lt;span style=&quot;white-space: pre&quot;&gt;&#9;&lt;/span&gt;&lt;span style=&quot;white-space: pre&quot;&gt;&#9;&lt;/span&gt;&lt;/font&gt;" style="rounded=0;whiteSpace=wrap;html=1;strokeColor=#000000;fillColor=#FFFFFF;align=left;sketch=1;" parent="1" vertex="1">
                    <mxGeometry x="710" y="391" width="110" height="20" as="geometry"/>
                </mxCell>
                <mxCell id="48" style="edgeStyle=orthogonalEdgeStyle;html=1;exitX=1;exitY=0.5;exitDx=0;exitDy=0;entryX=0.5;entryY=1;entryDx=0;entryDy=0;strokeColor=#000000;sketch=1;curved=1;rounded=0;" parent="1" source="35" target="47" edge="1">
                    <mxGeometry relative="1" as="geometry"/>
                </mxCell>
                <mxCell id="35" value="&lt;font color=&quot;#000000&quot;&gt;property3&lt;/font&gt;" style="rounded=0;whiteSpace=wrap;html=1;strokeColor=#000000;fillColor=#FFFFFF;align=left;sketch=1;" parent="1" vertex="1">
                    <mxGeometry x="710" y="411" width="110" height="20" as="geometry"/>
                </mxCell>
                <mxCell id="36" value="&lt;font color=&quot;#000000&quot;&gt;property5&lt;/font&gt;" style="rounded=0;whiteSpace=wrap;html=1;strokeColor=#000000;fillColor=#FFFFFF;align=left;sketch=1;" parent="1" vertex="1">
                    <mxGeometry x="710" y="451" width="110" height="20" as="geometry"/>
                </mxCell>
                <mxCell id="49" style="edgeStyle=orthogonalEdgeStyle;html=1;exitX=1;exitY=0.5;exitDx=0;exitDy=0;strokeColor=#000000;sketch=1;curved=1;rounded=0;" parent="1" source="37" edge="1">
                    <mxGeometry relative="1" as="geometry">
                        <mxPoint x="990" y="360" as="targetPoint"/>
                    </mxGeometry>
                </mxCell>
                <mxCell id="37" value="&lt;font color=&quot;#000000&quot;&gt;property4&lt;/font&gt;" style="rounded=0;whiteSpace=wrap;html=1;strokeColor=#000000;fillColor=#FFFFFF;align=left;sketch=1;" parent="1" vertex="1">
                    <mxGeometry x="710" y="431" width="110" height="20" as="geometry"/>
                </mxCell>
                <mxCell id="38" value="&lt;font color=&quot;#000000&quot;&gt;&lt;b&gt;Entity2&lt;/b&gt;&lt;/font&gt;" style="text;html=1;align=center;verticalAlign=middle;resizable=0;points=[];autosize=1;strokeColor=none;sketch=1;rounded=0;" parent="1" vertex="1">
                    <mxGeometry x="755" y="122" width="50" height="18" as="geometry"/>
                </mxCell>
                <mxCell id="39" value="&lt;font color=&quot;#000000&quot;&gt;properties&lt;/font&gt;" style="rounded=0;whiteSpace=wrap;html=1;strokeColor=#000000;fillColor=#FFFFFF;sketch=1;" parent="1" vertex="1">
                    <mxGeometry x="710" y="161" width="70" height="20" as="geometry"/>
                </mxCell>
                <mxCell id="40" value="&lt;font color=&quot;#000000&quot;&gt;caches&lt;/font&gt;" style="rounded=0;whiteSpace=wrap;html=1;strokeColor=#000000;fillColor=#FFFFFF;sketch=1;" parent="1" vertex="1">
                    <mxGeometry x="710" y="351" width="70" height="20" as="geometry"/>
                </mxCell>
                <mxCell id="44" style="edgeStyle=orthogonalEdgeStyle;html=1;exitX=1;exitY=0.5;exitDx=0;exitDy=0;entryX=0;entryY=0.5;entryDx=0;entryDy=0;strokeColor=#000000;sketch=1;curved=1;rounded=0;" parent="1" source="3" target="33" edge="1">
                    <mxGeometry relative="1" as="geometry">
                        <Array as="points">
                            <mxPoint x="530" y="190"/>
                            <mxPoint x="530" y="381"/>
                        </Array>
                    </mxGeometry>
                </mxCell>
                <mxCell id="45" style="edgeStyle=orthogonalEdgeStyle;html=1;exitX=1;exitY=0.5;exitDx=0;exitDy=0;entryX=0;entryY=0.5;entryDx=0;entryDy=0;strokeColor=#000000;sketch=1;curved=1;rounded=0;" parent="1" source="6" target="35" edge="1">
                    <mxGeometry relative="1" as="geometry">
                        <Array as="points">
                            <mxPoint x="500" y="230"/>
                            <mxPoint x="500" y="421"/>
                        </Array>
                    </mxGeometry>
                </mxCell>
                <mxCell id="46" style="edgeStyle=orthogonalEdgeStyle;html=1;exitX=1;exitY=0.5;exitDx=0;exitDy=0;entryX=0;entryY=0.5;entryDx=0;entryDy=0;strokeColor=#000000;sketch=1;curved=1;rounded=0;" parent="1" source="10" target="37" edge="1">
                    <mxGeometry relative="1" as="geometry">
                        <Array as="points">
                            <mxPoint x="480" y="250"/>
                            <mxPoint x="480" y="441"/>
                        </Array>
                    </mxGeometry>
                </mxCell>
                <mxCell id="50" style="edgeStyle=orthogonalEdgeStyle;html=1;exitX=0.5;exitY=0;exitDx=0;exitDy=0;entryX=1;entryY=0.5;entryDx=0;entryDy=0;strokeColor=#000000;sketch=1;curved=1;rounded=0;" parent="1" source="47" target="28" edge="1">
                    <mxGeometry relative="1" as="geometry"/>
                </mxCell>
                <mxCell id="47" value="&lt;font color=&quot;#000000&quot; style=&quot;font-size: 13px&quot;&gt;computed&lt;/font&gt;" style="rhombus;whiteSpace=wrap;html=1;strokeColor=#000000;fillColor=#FFFFFF;sketch=1;rounded=0;" parent="1" vertex="1">
                    <mxGeometry x="950" y="280" width="80" height="80" as="geometry"/>
                </mxCell>
                <mxCell id="53" style="edgeStyle=orthogonalEdgeStyle;html=1;exitX=0.5;exitY=0;exitDx=0;exitDy=0;entryX=0.5;entryY=0;entryDx=0;entryDy=0;strokeColor=#000000;sketch=1;curved=1;rounded=0;" parent="1" source="51" target="52" edge="1">
                    <mxGeometry relative="1" as="geometry">
                        <Array as="points">
                            <mxPoint x="253" y="556"/>
                            <mxPoint x="749" y="556"/>
                        </Array>
                    </mxGeometry>
                </mxCell>
                <mxCell id="51" value="&lt;b&gt;&lt;font color=&quot;#000000&quot;&gt;Entity1&lt;/font&gt;&lt;/b&gt;" style="rounded=0;whiteSpace=wrap;html=1;strokeColor=#000000;fillColor=#FFFFFF;sketch=1;" parent="1" vertex="1">
                    <mxGeometry x="131" y="647" width="243" height="125" as="geometry"/>
                </mxCell>
                <mxCell id="52" value="&lt;b&gt;&lt;font color=&quot;#000000&quot;&gt;Entity2&lt;/font&gt;&lt;/b&gt;" style="rounded=0;whiteSpace=wrap;html=1;strokeColor=#000000;fillColor=#FFFFFF;sketch=1;" parent="1" vertex="1">
                    <mxGeometry x="627" y="647" width="243" height="125" as="geometry"/>
                </mxCell>
                <mxCell id="54" value="&lt;b&gt;&lt;font color=&quot;#000000&quot;&gt;mapper&lt;/font&gt;&lt;/b&gt;" style="rhombus;whiteSpace=wrap;html=1;strokeColor=#000000;fillColor=#FFFFFF;sketch=1;rounded=0;" parent="1" vertex="1">
                    <mxGeometry x="441" y="516" width="80" height="80" as="geometry"/>
                </mxCell>
                <mxCell id="55" value="&lt;div style=&quot;text-align: justify&quot;&gt;&lt;span style=&quot;color: rgb(0 , 0 , 0)&quot;&gt;&lt;font style=&quot;font-size: 14px&quot;&gt;insert into actor3&lt;/font&gt;&lt;/span&gt;&lt;/div&gt;&lt;font color=&quot;#000000&quot; size=&quot;3&quot;&gt;&lt;div style=&quot;text-align: justify&quot;&gt;&lt;span&gt;select&lt;/span&gt;&lt;/div&gt;&lt;div style=&quot;text-align: justify&quot;&gt;&lt;span&gt;&lt;span style=&quot;white-space: pre&quot;&gt;&#9;&lt;/span&gt;actor2.property1 as property1,&lt;/span&gt;&lt;/div&gt;&lt;div style=&quot;text-align: justify&quot;&gt;&lt;span&gt;&lt;span style=&quot;white-space: pre&quot;&gt;&#9;&lt;/span&gt;actor2.property3 + actor2.property4 as property3&lt;/span&gt;&lt;/div&gt;&lt;div style=&quot;text-align: justify&quot;&gt;&lt;span&gt;;&lt;/span&gt;&lt;/div&gt;&lt;/font&gt;" style="rounded=0;whiteSpace=wrap;html=1;strokeColor=#000000;fillColor=#FFFFFF;sketch=1;" parent="1" vertex="1">
                    <mxGeometry x="296" y="873" width="404" height="151" as="geometry"/>
                </mxCell>
                <mxCell id="56" value="" style="rounded=0;whiteSpace=wrap;html=1;fillColor=#FFFFFF;strokeColor=#000000;sketch=1;" parent="1" vertex="1">
                    <mxGeometry x="989" y="1498" width="190" height="88" as="geometry"/>
                </mxCell>
                <mxCell id="57" value="" style="rounded=0;whiteSpace=wrap;html=1;fillColor=#FFFFFF;strokeColor=#000000;sketch=1;" parent="1" vertex="1">
                    <mxGeometry x="999" y="1508" width="190" height="88" as="geometry"/>
                </mxCell>
                <mxCell id="86" style="edgeStyle=orthogonalEdgeStyle;html=1;exitX=0.5;exitY=1;exitDx=0;exitDy=0;entryX=0.5;entryY=0;entryDx=0;entryDy=0;strokeColor=#000000;sketch=1;curved=1;rounded=0;" parent="1" source="58" target="80" edge="1">
                    <mxGeometry relative="1" as="geometry"/>
                </mxCell>
                <mxCell id="90" style="edgeStyle=orthogonalEdgeStyle;html=1;exitX=0.5;exitY=1;exitDx=0;exitDy=0;strokeColor=#000000;entryX=0.5;entryY=0;entryDx=0;entryDy=0;sketch=1;curved=1;rounded=0;" parent="1" source="58" target="63" edge="1">
                    <mxGeometry relative="1" as="geometry">
                        <mxPoint x="1292" y="1693" as="targetPoint"/>
                        <Array as="points">
                            <mxPoint x="1104" y="1650"/>
                            <mxPoint x="1294" y="1650"/>
                        </Array>
                    </mxGeometry>
                </mxCell>
                <mxCell id="58" value="&lt;font color=&quot;#000000&quot; style=&quot;font-size: 18px&quot;&gt;mapper&lt;/font&gt;" style="rounded=0;whiteSpace=wrap;html=1;fillColor=#FFFFFF;strokeColor=#000000;sketch=1;" parent="1" vertex="1">
                    <mxGeometry x="1009" y="1518" width="190" height="88" as="geometry"/>
                </mxCell>
                <mxCell id="66" value="&lt;font color=&quot;#000000&quot; style=&quot;font-size: 16px&quot;&gt;parse&lt;/font&gt;" style="text;html=1;align=center;verticalAlign=middle;resizable=0;points=[];autosize=1;strokeColor=none;sketch=1;rounded=0;" parent="1" vertex="1">
                    <mxGeometry x="1105" y="1616" width="50" height="19" as="geometry"/>
                </mxCell>
                <mxCell id="80" value="&lt;font color=&quot;#000000&quot; style=&quot;font-size: 15px&quot;&gt;computed&lt;/font&gt;" style="rhombus;whiteSpace=wrap;html=1;strokeColor=#000000;fillColor=#F0F0F0;sketch=1;rounded=0;" parent="1" vertex="1">
                    <mxGeometry x="863" y="1701.5" width="92" height="92" as="geometry"/>
                </mxCell>
                <mxCell id="91" value="" style="group;sketch=1;rounded=0;" parent="1" vertex="1" connectable="0">
                    <mxGeometry x="1191" y="1709.25" width="205" height="76.5" as="geometry"/>
                </mxCell>
                <mxCell id="63" value="" style="rounded=0;whiteSpace=wrap;html=1;strokeColor=#000000;fillColor=#FFFFFF;sketch=1;" parent="91" vertex="1">
                    <mxGeometry width="205" height="76.5" as="geometry"/>
                </mxCell>
                <mxCell id="59" value="&lt;font color=&quot;#000000&quot; style=&quot;font-size: 15px&quot;&gt;tentacle&lt;/font&gt;" style="rounded=0;whiteSpace=wrap;html=1;strokeColor=#000000;fillColor=#FFFFFF;sketch=1;" parent="91" vertex="1">
                    <mxGeometry x="6" y="6" width="193" height="31" as="geometry"/>
                </mxCell>
                <mxCell id="60" value="&lt;span style=&quot;color: rgb(0 , 0 , 0) ; font-size: 15px&quot;&gt;tentacle&lt;/span&gt;" style="rounded=0;whiteSpace=wrap;html=1;strokeColor=#000000;fillColor=#FFFFFF;sketch=1;" parent="91" vertex="1">
                    <mxGeometry x="6" y="39" width="193" height="31" as="geometry"/>
                </mxCell>
                <mxCell id="92" value="" style="group;sketch=1;rounded=0;" parent="1" vertex="1" connectable="0">
                    <mxGeometry x="1006" y="2150" width="205" height="76.5" as="geometry"/>
                </mxCell>
                <mxCell id="93" value="" style="rounded=0;whiteSpace=wrap;html=1;strokeColor=#000000;fillColor=#FFFFFF;sketch=1;" parent="92" vertex="1">
                    <mxGeometry width="205" height="76.5" as="geometry"/>
                </mxCell>
                <mxCell id="94" value="&lt;font color=&quot;#000000&quot; style=&quot;font-size: 15px&quot;&gt;tentacle&lt;/font&gt;" style="rounded=0;whiteSpace=wrap;html=1;strokeColor=#000000;fillColor=#FFFFFF;sketch=1;" parent="92" vertex="1">
                    <mxGeometry x="6" y="6" width="193" height="31" as="geometry"/>
                </mxCell>
                <mxCell id="95" value="&lt;span style=&quot;color: rgb(0 , 0 , 0) ; font-size: 15px&quot;&gt;tentacle&lt;/span&gt;" style="rounded=0;whiteSpace=wrap;html=1;strokeColor=#000000;fillColor=#FFFFFF;sketch=1;" parent="92" vertex="1">
                    <mxGeometry x="6" y="39" width="193" height="31" as="geometry"/>
                </mxCell>
                <mxCell id="106" style="edgeStyle=orthogonalEdgeStyle;html=1;exitX=0.5;exitY=1;exitDx=0;exitDy=0;entryX=0.5;entryY=0;entryDx=0;entryDy=0;strokeColor=#000000;sketch=1;curved=1;rounded=0;" parent="1" source="96" target="93" edge="1">
                    <mxGeometry relative="1" as="geometry"/>
                </mxCell>
                <mxCell id="96" value="&lt;font color=&quot;#000000&quot; style=&quot;font-size: 15px&quot;&gt;Core Context&lt;/font&gt;" style="rounded=0;whiteSpace=wrap;html=1;strokeColor=#000000;fillColor=#FFFFFF;sketch=1;" parent="1" vertex="1">
                    <mxGeometry x="1016.75" y="2045" width="183.5" height="60" as="geometry"/>
                </mxCell>
                <mxCell id="104" style="edgeStyle=orthogonalEdgeStyle;html=1;exitX=1;exitY=0.5;exitDx=0;exitDy=0;entryX=0;entryY=0.5;entryDx=0;entryDy=0;strokeColor=#000000;sketch=1;curved=1;rounded=0;" parent="1" source="103" target="93" edge="1">
                    <mxGeometry relative="1" as="geometry"/>
                </mxCell>
                <mxCell id="103" value="&lt;font color=&quot;#000000&quot; style=&quot;font-size: 18px&quot;&gt;mapper&lt;/font&gt;" style="rounded=0;whiteSpace=wrap;html=1;fillColor=#FFFFFF;strokeColor=#000000;sketch=1;" parent="1" vertex="1">
                    <mxGeometry x="739" y="2144.25" width="190" height="88" as="geometry"/>
                </mxCell>
                <mxCell id="105" value="&lt;font color=&quot;#000000&quot; style=&quot;font-size: 16px&quot;&gt;parse&lt;/font&gt;" style="text;html=1;align=center;verticalAlign=middle;resizable=0;points=[];autosize=1;strokeColor=none;sketch=1;rounded=0;" parent="1" vertex="1">
                    <mxGeometry x="942" y="2168" width="50" height="19" as="geometry"/>
                </mxCell>
                <mxCell id="108" value="&lt;font style=&quot;font-size: 14px&quot; color=&quot;#000000&quot; face=&quot;Courier New&quot;&gt;with&lt;/font&gt;" style="text;html=1;align=center;verticalAlign=middle;resizable=0;points=[];autosize=1;strokeColor=none;sketch=1;rounded=0;" parent="1" vertex="1">
                    <mxGeometry x="1107" y="2119" width="44" height="18" as="geometry"/>
                </mxCell>
                <mxCell id="112" value="&lt;font color=&quot;#000000&quot; style=&quot;font-size: 15px&quot;&gt;&lt;font style=&quot;font-size: 15px&quot;&gt;concrete&lt;/font&gt;&lt;span&gt;&amp;nbsp;tentacles&lt;/span&gt;&lt;/font&gt;" style="rounded=0;whiteSpace=wrap;html=1;strokeColor=#000000;fillColor=#FFFFFF;sketch=1;" parent="1" vertex="1">
                    <mxGeometry x="1288" y="2172.75" width="193" height="31" as="geometry"/>
                </mxCell>
                <mxCell id="113" style="edgeStyle=orthogonalEdgeStyle;html=1;exitX=1;exitY=0.5;exitDx=0;exitDy=0;entryX=0;entryY=0.5;entryDx=0;entryDy=0;strokeColor=#000000;sketch=1;curved=1;rounded=0;" parent="1" source="93" target="112" edge="1">
                    <mxGeometry relative="1" as="geometry"/>
                </mxCell>
                <mxCell id="114" value="&lt;font color=&quot;#000000&quot; style=&quot;font-size: 13px&quot;&gt;Generate&lt;/font&gt;" style="text;html=1;align=center;verticalAlign=middle;resizable=0;points=[];autosize=1;strokeColor=none;sketch=1;rounded=0;" parent="1" vertex="1">
                    <mxGeometry x="1213" y="2169" width="64" height="18" as="geometry"/>
                </mxCell>
                <mxCell id="117" value="&lt;span style=&quot;color: rgb(0 , 0 , 0) ; font-size: 14px&quot;&gt;copy&lt;/span&gt;" style="text;html=1;align=center;verticalAlign=middle;resizable=0;points=[];autosize=1;strokeColor=none;sketch=1;rounded=0;" parent="1" vertex="1">
                    <mxGeometry x="850" y="171" width="40" height="19" as="geometry"/>
                </mxCell>
                <mxCell id="118" value="" style="rounded=0;whiteSpace=wrap;html=1;fillColor=#FFFFFF;strokeColor=#000000;sketch=1;" parent="1" vertex="1">
                    <mxGeometry x="963.5" y="2418" width="190" height="88" as="geometry"/>
                </mxCell>
                <mxCell id="119" value="" style="rounded=0;whiteSpace=wrap;html=1;fillColor=#FFFFFF;strokeColor=#000000;sketch=1;" parent="1" vertex="1">
                    <mxGeometry x="973.5" y="2428" width="190" height="88" as="geometry"/>
                </mxCell>
                <mxCell id="120" style="edgeStyle=orthogonalEdgeStyle;html=1;exitX=0.5;exitY=1;exitDx=0;exitDy=0;entryX=0.5;entryY=0;entryDx=0;entryDy=0;strokeColor=#000000;sketch=1;curved=1;rounded=0;" parent="1" source="122" target="124" edge="1">
                    <mxGeometry relative="1" as="geometry"/>
                </mxCell>
                <mxCell id="121" style="edgeStyle=orthogonalEdgeStyle;html=1;exitX=0.5;exitY=1;exitDx=0;exitDy=0;strokeColor=#000000;entryX=0.5;entryY=0;entryDx=0;entryDy=0;sketch=1;curved=1;rounded=0;" parent="1" source="122" target="126" edge="1">
                    <mxGeometry relative="1" as="geometry">
                        <mxPoint x="1266.5" y="2613" as="targetPoint"/>
                        <Array as="points">
                            <mxPoint x="1078.5" y="2570"/>
                            <mxPoint x="1268.5" y="2570"/>
                        </Array>
                    </mxGeometry>
                </mxCell>
                <mxCell id="122" value="&lt;font color=&quot;#000000&quot; style=&quot;font-size: 18px&quot;&gt;mapper&lt;/font&gt;" style="rounded=0;whiteSpace=wrap;html=1;fillColor=#FFFFFF;strokeColor=#000000;sketch=1;" parent="1" vertex="1">
                    <mxGeometry x="983.5" y="2438" width="190" height="88" as="geometry"/>
                </mxCell>
                <mxCell id="123" value="&lt;font color=&quot;#000000&quot; style=&quot;font-size: 16px&quot;&gt;parse&lt;/font&gt;" style="text;html=1;align=center;verticalAlign=middle;resizable=0;points=[];autosize=1;strokeColor=none;sketch=1;rounded=0;" parent="1" vertex="1">
                    <mxGeometry x="1079.5" y="2536" width="50" height="19" as="geometry"/>
                </mxCell>
                <mxCell id="134" style="edgeStyle=orthogonalEdgeStyle;html=1;exitX=0.5;exitY=1;exitDx=0;exitDy=0;entryX=0;entryY=0.5;entryDx=0;entryDy=0;dashed=1;strokeColor=#000000;sketch=1;curved=1;rounded=0;" parent="1" source="124" target="130" edge="1">
                    <mxGeometry relative="1" as="geometry">
                        <Array as="points">
                            <mxPoint x="884" y="2789"/>
                        </Array>
                    </mxGeometry>
                </mxCell>
                <mxCell id="124" value="&lt;font color=&quot;#000000&quot; style=&quot;font-size: 15px&quot;&gt;computed&lt;/font&gt;" style="rhombus;whiteSpace=wrap;html=1;strokeColor=#000000;fillColor=#F0F0F0;sketch=1;rounded=0;" parent="1" vertex="1">
                    <mxGeometry x="837.5" y="2621.5" width="92" height="92" as="geometry"/>
                </mxCell>
                <mxCell id="125" value="" style="group;sketch=1;rounded=0;" parent="1" vertex="1" connectable="0">
                    <mxGeometry x="1165.5" y="2629.25" width="205" height="76.5" as="geometry"/>
                </mxCell>
                <mxCell id="126" value="" style="rounded=0;whiteSpace=wrap;html=1;strokeColor=#000000;fillColor=#FFFFFF;sketch=1;" parent="125" vertex="1">
                    <mxGeometry width="205" height="76.5" as="geometry"/>
                </mxCell>
                <mxCell id="127" value="&lt;font color=&quot;#000000&quot; style=&quot;font-size: 15px&quot;&gt;tentacle&lt;/font&gt;" style="rounded=0;whiteSpace=wrap;html=1;strokeColor=#000000;fillColor=#FFFFFF;sketch=1;" parent="125" vertex="1">
                    <mxGeometry x="6" y="6" width="193" height="31" as="geometry"/>
                </mxCell>
                <mxCell id="128" value="&lt;span style=&quot;color: rgb(0 , 0 , 0) ; font-size: 15px&quot;&gt;tentacle&lt;/span&gt;" style="rounded=0;whiteSpace=wrap;html=1;strokeColor=#000000;fillColor=#FFFFFF;sketch=1;" parent="125" vertex="1">
                    <mxGeometry x="6" y="39" width="193" height="31" as="geometry"/>
                </mxCell>
                <mxCell id="130" value="&lt;font color=&quot;#000000&quot; style=&quot;font-size: 14px&quot;&gt;Actor2&lt;/font&gt;" style="shape=parallelogram;perimeter=parallelogramPerimeter;whiteSpace=wrap;html=1;fixedSize=1;strokeColor=#000000;fillColor=#FFFFFF;sketch=1;rounded=0;" parent="1" vertex="1">
                    <mxGeometry x="1022" y="2751" width="150" height="75" as="geometry"/>
                </mxCell>
                <mxCell id="131" value="&lt;font color=&quot;#000000&quot; style=&quot;font-size: 14px&quot;&gt;Actor3&lt;/font&gt;" style="shape=parallelogram;perimeter=parallelogramPerimeter;whiteSpace=wrap;html=1;fixedSize=1;strokeColor=#000000;fillColor=#FFFFFF;sketch=1;rounded=0;" parent="1" vertex="1">
                    <mxGeometry x="1372" y="2751" width="150" height="75" as="geometry"/>
                </mxCell>
                <mxCell id="132" style="edgeStyle=orthogonalEdgeStyle;html=1;exitX=1;exitY=0.5;exitDx=0;exitDy=0;entryX=0.5;entryY=0;entryDx=0;entryDy=0;strokeColor=#000000;dashed=1;sketch=1;curved=1;rounded=0;" parent="1" source="127" target="131" edge="1">
                    <mxGeometry relative="1" as="geometry"/>
                </mxCell>
                <mxCell id="133" style="edgeStyle=orthogonalEdgeStyle;html=1;exitX=0;exitY=0.5;exitDx=0;exitDy=0;entryX=0.5;entryY=0;entryDx=0;entryDy=0;strokeColor=#000000;dashed=1;sketch=1;curved=1;rounded=0;" parent="1" source="128" target="130" edge="1">
                    <mxGeometry relative="1" as="geometry"/>
                </mxCell>
                <mxCell id="135" value="&lt;font color=&quot;#000000&quot; style=&quot;font-size: 14px&quot;&gt;Runtime1&lt;/font&gt;" style="shape=parallelogram;perimeter=parallelogramPerimeter;whiteSpace=wrap;html=1;fixedSize=1;strokeColor=#000000;fillColor=#FFFFFF;sketch=1;rounded=0;" parent="1" vertex="1">
                    <mxGeometry x="952" y="3509" width="398" height="196" as="geometry"/>
                </mxCell>
                <mxCell id="140" style="edgeStyle=orthogonalEdgeStyle;html=1;exitX=0.5;exitY=0;exitDx=0;exitDy=0;entryX=0;entryY=0.5;entryDx=0;entryDy=0;dashed=1;strokeColor=#000000;sketch=1;curved=1;rounded=0;" parent="1" source="137" target="139" edge="1">
                    <mxGeometry relative="1" as="geometry">
                        <Array as="points">
                            <mxPoint x="1060" y="3555"/>
                            <mxPoint x="997" y="3555"/>
                            <mxPoint x="997" y="3531"/>
                        </Array>
                    </mxGeometry>
                </mxCell>
                <mxCell id="137" value="&lt;table border=&quot;1&quot; width=&quot;100%&quot; style=&quot;width: 100% ; height: 100% ; border-collapse: collapse&quot;&gt;&lt;tbody&gt;&lt;tr&gt;&lt;td align=&quot;center&quot;&gt;&lt;font color=&quot;#000000&quot;&gt;Value 1&lt;/font&gt;&lt;/td&gt;&lt;td align=&quot;center&quot;&gt;&lt;font color=&quot;#000000&quot;&gt;Value 2&lt;/font&gt;&lt;/td&gt;&lt;td align=&quot;center&quot;&gt;&lt;font color=&quot;#000000&quot;&gt;Value 3&lt;/font&gt;&lt;/td&gt;&lt;/tr&gt;&lt;tr&gt;&lt;td align=&quot;center&quot;&gt;&lt;font color=&quot;#000000&quot;&gt;Value 4&lt;/font&gt;&lt;/td&gt;&lt;td align=&quot;center&quot;&gt;&lt;font color=&quot;#000000&quot;&gt;Value 5&lt;/font&gt;&lt;/td&gt;&lt;td align=&quot;center&quot;&gt;&lt;font color=&quot;#000000&quot;&gt;Value 6&lt;/font&gt;&lt;/td&gt;&lt;/tr&gt;&lt;tr&gt;&lt;td align=&quot;center&quot;&gt;&lt;font color=&quot;#000000&quot;&gt;Value 7&lt;/font&gt;&lt;/td&gt;&lt;td align=&quot;center&quot;&gt;&lt;font color=&quot;#000000&quot;&gt;Value 8&lt;/font&gt;&lt;/td&gt;&lt;td align=&quot;center&quot;&gt;&lt;font color=&quot;#000000&quot;&gt;Value 9&lt;/font&gt;&lt;/td&gt;&lt;/tr&gt;&lt;/tbody&gt;&lt;/table&gt;" style="text;html=1;strokeColor=none;fillColor=none;overflow=fill;sketch=1;rounded=0;" parent="1" vertex="1">
                    <mxGeometry x="970" y="3623" width="180" height="76" as="geometry"/>
                </mxCell>
                <mxCell id="149" style="edgeStyle=orthogonalEdgeStyle;html=1;exitX=1;exitY=0.5;exitDx=0;exitDy=0;entryX=0.5;entryY=1;entryDx=0;entryDy=0;strokeColor=#000000;sketch=1;curved=1;rounded=0;" parent="1" source="139" target="142" edge="1">
                    <mxGeometry relative="1" as="geometry">
                        <Array as="points">
                            <mxPoint x="1416" y="3531"/>
                            <mxPoint x="1416" y="3754"/>
                            <mxPoint x="1691" y="3754"/>
                        </Array>
                    </mxGeometry>
                </mxCell>
                <mxCell id="139" value="&lt;span style=&quot;color: rgb(0 , 0 , 0) ; font-size: 15px&quot;&gt;subTree&lt;/span&gt;" style="rounded=0;whiteSpace=wrap;html=1;strokeColor=#000000;fillColor=#FFFFFF;sketch=1;" parent="1" vertex="1">
                    <mxGeometry x="1147" y="3515" width="193" height="31" as="geometry"/>
                </mxCell>
                <mxCell id="141" value="&lt;font color=&quot;#000000&quot; style=&quot;font-size: 13px&quot;&gt;match path&lt;/font&gt;" style="text;html=1;align=center;verticalAlign=middle;resizable=0;points=[];autosize=1;strokeColor=none;sketch=1;rounded=0;" parent="1" vertex="1">
                    <mxGeometry x="1009.5" y="3533" width="74" height="18" as="geometry"/>
                </mxCell>
                <mxCell id="142" value="&lt;font color=&quot;#000000&quot; style=&quot;font-size: 14px&quot;&gt;Runtime2&lt;/font&gt;" style="shape=parallelogram;perimeter=parallelogramPerimeter;whiteSpace=wrap;html=1;fixedSize=1;strokeColor=#000000;fillColor=#FFFFFF;sketch=1;rounded=0;" parent="1" vertex="1">
                    <mxGeometry x="1492" y="3509" width="398" height="196" as="geometry"/>
                </mxCell>
                <mxCell id="143" style="edgeStyle=orthogonalEdgeStyle;html=1;exitX=0.5;exitY=0;exitDx=0;exitDy=0;entryX=0;entryY=0.5;entryDx=0;entryDy=0;dashed=1;strokeColor=#000000;sketch=1;curved=1;rounded=0;" parent="1" source="144" target="145" edge="1">
                    <mxGeometry relative="1" as="geometry">
                        <Array as="points">
                            <mxPoint x="1600" y="3555"/>
                            <mxPoint x="1537" y="3555"/>
                            <mxPoint x="1537" y="3531"/>
                        </Array>
                    </mxGeometry>
                </mxCell>
                <mxCell id="144" value="&lt;table border=&quot;1&quot; width=&quot;100%&quot; style=&quot;width: 100% ; height: 100% ; border-collapse: collapse&quot;&gt;&lt;tbody&gt;&lt;tr&gt;&lt;td align=&quot;center&quot;&gt;&lt;font color=&quot;#000000&quot;&gt;Value 1&lt;/font&gt;&lt;/td&gt;&lt;td align=&quot;center&quot;&gt;&lt;font color=&quot;#000000&quot;&gt;Value 2&lt;/font&gt;&lt;/td&gt;&lt;td align=&quot;center&quot;&gt;&lt;font color=&quot;#000000&quot;&gt;Value 3&lt;/font&gt;&lt;/td&gt;&lt;/tr&gt;&lt;tr&gt;&lt;td align=&quot;center&quot;&gt;&lt;font color=&quot;#000000&quot;&gt;Value 4&lt;/font&gt;&lt;/td&gt;&lt;td align=&quot;center&quot;&gt;&lt;font color=&quot;#000000&quot;&gt;Value 5&lt;/font&gt;&lt;/td&gt;&lt;td align=&quot;center&quot;&gt;&lt;font color=&quot;#000000&quot;&gt;Value 6&lt;/font&gt;&lt;/td&gt;&lt;/tr&gt;&lt;tr&gt;&lt;td align=&quot;center&quot;&gt;&lt;font color=&quot;#000000&quot;&gt;Value 7&lt;/font&gt;&lt;/td&gt;&lt;td align=&quot;center&quot;&gt;&lt;font color=&quot;#000000&quot;&gt;Value 8&lt;/font&gt;&lt;/td&gt;&lt;td align=&quot;center&quot;&gt;&lt;font color=&quot;#000000&quot;&gt;Value 9&lt;/font&gt;&lt;/td&gt;&lt;/tr&gt;&lt;/tbody&gt;&lt;/table&gt;" style="text;html=1;strokeColor=none;fillColor=none;overflow=fill;sketch=1;rounded=0;" parent="1" vertex="1">
                    <mxGeometry x="1510" y="3623" width="180" height="76" as="geometry"/>
                </mxCell>
                <mxCell id="153" style="edgeStyle=orthogonalEdgeStyle;html=1;exitX=0.5;exitY=1;exitDx=0;exitDy=0;strokeColor=#000000;dashed=1;sketch=1;curved=1;rounded=0;" parent="1" source="145" target="151" edge="1">
                    <mxGeometry relative="1" as="geometry"/>
                </mxCell>
                <mxCell id="145" value="&lt;span style=&quot;color: rgb(0 , 0 , 0) ; font-size: 15px&quot;&gt;evalTree&lt;/span&gt;" style="rounded=0;whiteSpace=wrap;html=1;strokeColor=#000000;fillColor=#FFFFFF;sketch=1;" parent="1" vertex="1">
                    <mxGeometry x="1687" y="3515" width="193" height="31" as="geometry"/>
                </mxCell>
                <mxCell id="146" value="&lt;font color=&quot;#000000&quot; style=&quot;font-size: 13px&quot;&gt;match path&lt;/font&gt;" style="text;html=1;align=center;verticalAlign=middle;resizable=0;points=[];autosize=1;strokeColor=none;sketch=1;rounded=0;" parent="1" vertex="1">
                    <mxGeometry x="1549.5" y="3533" width="74" height="18" as="geometry"/>
                </mxCell>
                <mxCell id="147" value="" style="endArrow=classic;html=1;strokeColor=#000000;entryX=0.5;entryY=1;entryDx=0;entryDy=0;sketch=1;curved=1;rounded=0;" parent="1" target="135" edge="1">
                    <mxGeometry width="50" height="50" relative="1" as="geometry">
                        <mxPoint x="1151" y="3766" as="sourcePoint"/>
                        <mxPoint x="1109" y="3728" as="targetPoint"/>
                    </mxGeometry>
                </mxCell>
                <mxCell id="148" value="&lt;font color=&quot;#000000&quot;&gt;Messages&lt;/font&gt;" style="text;html=1;align=center;verticalAlign=middle;resizable=0;points=[];autosize=1;strokeColor=none;sketch=1;rounded=0;" parent="1" vertex="1">
                    <mxGeometry x="1152" y="3736" width="65" height="18" as="geometry"/>
                </mxCell>
                <mxCell id="150" value="&lt;font color=&quot;#000000&quot;&gt;Send Message&lt;/font&gt;" style="text;html=1;align=center;verticalAlign=middle;resizable=0;points=[];autosize=1;strokeColor=none;sketch=1;rounded=0;" parent="1" vertex="1">
                    <mxGeometry x="1514" y="3736" width="90" height="18" as="geometry"/>
                </mxCell>
                <mxCell id="151" value="&lt;font color=&quot;#000000&quot; style=&quot;font-size: 15px&quot;&gt;computed&lt;/font&gt;" style="rhombus;whiteSpace=wrap;html=1;strokeColor=#000000;fillColor=#F0F0F0;sketch=1;rounded=0;" parent="1" vertex="1">
                    <mxGeometry x="1737.5" y="3607" width="92" height="92" as="geometry"/>
                </mxCell>
                <mxCell id="160" style="edgeStyle=orthogonalEdgeStyle;curved=1;sketch=1;html=1;exitX=0.5;exitY=1;exitDx=0;exitDy=0;entryX=0.5;entryY=0;entryDx=0;entryDy=0;fontFamily=Courier New;fontColor=#000000;strokeColor=#000000;" edge="1" parent="1" source="154" target="155">
                    <mxGeometry relative="1" as="geometry"/>
                </mxCell>
                <mxCell id="161" style="edgeStyle=orthogonalEdgeStyle;curved=1;sketch=1;html=1;exitX=0.5;exitY=1;exitDx=0;exitDy=0;entryX=0.5;entryY=0;entryDx=0;entryDy=0;fontFamily=Courier New;fontColor=#000000;strokeColor=#000000;" edge="1" parent="1" source="154" target="157">
                    <mxGeometry relative="1" as="geometry"/>
                </mxCell>
                <mxCell id="162" style="edgeStyle=orthogonalEdgeStyle;curved=1;sketch=1;html=1;exitX=0.5;exitY=1;exitDx=0;exitDy=0;fontFamily=Courier New;fontColor=#000000;strokeColor=#000000;" edge="1" parent="1" source="154" target="158">
                    <mxGeometry relative="1" as="geometry"/>
                </mxCell>
                <mxCell id="154" value="&lt;font color=&quot;#000000&quot; face=&quot;Courier New&quot;&gt;Expression&lt;/font&gt;" style="rounded=0;whiteSpace=wrap;html=1;fillColor=#F0F0F0;strokeColor=#000000;strokeWidth=2;sketch=1;" vertex="1" parent="1">
                    <mxGeometry x="1181" y="4406" width="111" height="43" as="geometry"/>
                </mxCell>
                <mxCell id="167" style="edgeStyle=orthogonalEdgeStyle;curved=1;sketch=1;html=1;exitX=0.5;exitY=1;exitDx=0;exitDy=0;entryX=0.5;entryY=0;entryDx=0;entryDy=0;fontFamily=Courier New;fontColor=#000000;strokeColor=#000000;" edge="1" parent="1" source="155" target="164">
                    <mxGeometry relative="1" as="geometry"/>
                </mxCell>
                <mxCell id="155" value="&lt;font color=&quot;#000000&quot; face=&quot;Courier New&quot;&gt;ExpressionInfo&lt;/font&gt;" style="rounded=0;whiteSpace=wrap;html=1;fillColor=#F0F0F0;strokeColor=#000000;strokeWidth=2;sketch=1;" vertex="1" parent="1">
                    <mxGeometry x="1030" y="4543" width="111" height="43" as="geometry"/>
                </mxCell>
                <mxCell id="169" value="" style="edgeStyle=orthogonalEdgeStyle;curved=1;sketch=1;html=1;fontFamily=Courier New;fontColor=#000000;strokeColor=#000000;" edge="1" parent="1" source="157" target="165">
                    <mxGeometry relative="1" as="geometry"/>
                </mxCell>
                <mxCell id="157" value="&lt;font color=&quot;#000000&quot; face=&quot;Courier New&quot;&gt;ExpressionInfo&lt;/font&gt;" style="rounded=0;whiteSpace=wrap;html=1;fillColor=#F0F0F0;strokeColor=#000000;strokeWidth=2;sketch=1;" vertex="1" parent="1">
                    <mxGeometry x="1181" y="4543" width="111" height="43" as="geometry"/>
                </mxCell>
                <mxCell id="170" value="" style="edgeStyle=orthogonalEdgeStyle;curved=1;sketch=1;html=1;fontFamily=Courier New;fontColor=#000000;strokeColor=#000000;" edge="1" parent="1" source="158" target="166">
                    <mxGeometry relative="1" as="geometry"/>
                </mxCell>
                <mxCell id="158" value="&lt;font color=&quot;#000000&quot; face=&quot;Courier New&quot;&gt;ExpressionInfo&lt;/font&gt;" style="rounded=0;whiteSpace=wrap;html=1;fillColor=#F0F0F0;strokeColor=#000000;strokeWidth=2;sketch=1;" vertex="1" parent="1">
                    <mxGeometry x="1332" y="4543" width="111" height="43" as="geometry"/>
                </mxCell>
                <mxCell id="163" value="parse" style="text;html=1;align=center;verticalAlign=middle;resizable=0;points=[];autosize=1;strokeColor=none;fillColor=none;fontFamily=Courier New;fontColor=#000000;" vertex="1" parent="1">
                    <mxGeometry x="1239" y="4453" width="46" height="18" as="geometry"/>
                </mxCell>
                <mxCell id="164" value="Runtime1" style="whiteSpace=wrap;html=1;aspect=fixed;sketch=1;fontFamily=Courier New;fontColor=#000000;strokeColor=#000000;strokeWidth=2;fillColor=#F0F0F0;" vertex="1" parent="1">
                    <mxGeometry x="1029" y="4650" width="112" height="112" as="geometry"/>
                </mxCell>
                <mxCell id="165" value="Runtime2" style="whiteSpace=wrap;html=1;aspect=fixed;sketch=1;fontFamily=Courier New;fontColor=#000000;strokeColor=#000000;strokeWidth=2;fillColor=#F0F0F0;" vertex="1" parent="1">
                    <mxGeometry x="1180" y="4650" width="112" height="112" as="geometry"/>
                </mxCell>
                <mxCell id="166" value="Runtime3" style="whiteSpace=wrap;html=1;aspect=fixed;sketch=1;fontFamily=Courier New;fontColor=#000000;strokeColor=#000000;strokeWidth=2;fillColor=#F0F0F0;" vertex="1" parent="1">
                    <mxGeometry x="1332.5" y="4650" width="112" height="112" as="geometry"/>
                </mxCell>
            </root>
        </mxGraphModel>
    </diagram>
</mxfile>